<svg id="svg" version="1.1" xmlns="http://www.w3.org/2000/svg" xmlns:xlink="http://www.w3.org/1999/xlink" width="400" height="400" viewBox="0, 0, 400,400"><g id="svgg"><path id="path0" d="M177.206 0.487 C 174.239 0.690,171.719 0.994,171.606 1.161 C 171.493 1.329,169.015 1.699,166.100 1.983 C 163.185 2.267,160.800 2.639,160.800 2.809 C 160.800 2.980,159.540 3.245,158.000 3.400 C 156.460 3.555,155.200 3.825,155.200 4.001 C 155.200 4.177,154.120 4.447,152.800 4.600 C 151.480 4.753,150.400 5.019,150.400 5.190 C 150.400 5.362,148.957 5.727,147.193 6.001 C 145.429 6.276,143.898 6.642,143.791 6.815 C 143.683 6.989,142.877 7.252,141.998 7.400 C 141.119 7.549,140.400 7.834,140.400 8.035 C 140.400 8.236,139.961 8.400,139.425 8.400 C 138.294 8.400,131.897 10.384,131.599 10.828 C 131.489 10.992,130.724 11.253,129.899 11.408 C 129.075 11.562,128.400 11.812,128.400 11.962 C 128.400 12.111,127.591 12.450,126.603 12.715 C 125.614 12.979,123.918 13.623,122.834 14.147 C 121.750 14.670,120.399 15.214,119.831 15.356 C 119.264 15.499,118.800 15.774,118.800 15.968 C 118.800 16.162,117.900 16.536,116.800 16.800 C 115.700 17.064,114.800 17.428,114.800 17.608 C 114.800 17.789,114.260 18.055,113.600 18.200 C 112.940 18.345,112.400 18.615,112.400 18.800 C 112.400 18.985,111.860 19.255,111.200 19.400 C 110.540 19.545,110.000 19.800,110.000 19.968 C 110.000 20.135,109.280 20.510,108.400 20.800 C 107.520 21.090,106.800 21.465,106.800 21.632 C 106.800 21.800,106.260 22.055,105.600 22.200 C 104.940 22.345,104.400 22.596,104.400 22.757 C 104.400 22.919,103.770 23.298,103.000 23.600 C 102.230 23.902,101.600 24.281,101.600 24.443 C 101.600 24.604,101.075 24.852,100.433 24.993 C 99.792 25.134,99.167 25.508,99.046 25.824 C 98.924 26.141,98.549 26.400,98.213 26.400 C 97.876 26.400,97.600 26.546,97.600 26.725 C 97.600 26.904,96.970 27.298,96.200 27.600 C 95.430 27.902,94.800 28.296,94.800 28.475 C 94.800 28.654,94.524 28.800,94.187 28.800 C 93.851 28.800,93.471 29.070,93.345 29.400 C 93.218 29.730,92.877 30.000,92.586 30.000 C 92.295 30.000,91.819 30.225,91.529 30.500 C 91.238 30.775,90.460 31.270,89.800 31.599 C 89.140 31.929,88.456 32.424,88.280 32.699 C 88.104 32.975,87.699 33.200,87.380 33.200 C 87.061 33.200,86.800 33.384,86.800 33.610 C 86.800 33.835,86.395 34.203,85.900 34.427 C 84.140 35.224,83.060 35.950,82.712 36.571 C 82.519 36.917,82.099 37.200,81.780 37.200 C 81.461 37.200,81.200 37.368,81.200 37.573 C 81.200 37.778,80.843 38.060,80.406 38.198 C 79.969 38.337,79.083 38.979,78.436 39.625 C 77.790 40.271,77.077 40.800,76.851 40.800 C 76.625 40.800,76.296 41.026,76.120 41.302 C 75.944 41.579,75.080 42.334,74.200 42.980 C 73.320 43.627,72.456 44.391,72.280 44.678 C 72.104 44.965,71.778 45.200,71.554 45.200 C 71.331 45.200,70.271 46.100,69.200 47.200 C 68.129 48.300,67.130 49.200,66.980 49.200 C 66.705 49.200,62.878 52.762,61.660 54.153 C 61.297 54.567,60.398 55.467,59.661 56.153 C 58.925 56.839,58.025 57.735,57.661 58.143 C 56.809 59.102,55.092 60.818,54.143 61.660 C 52.714 62.928,49.200 66.710,49.200 66.980 C 49.200 67.130,48.300 68.129,47.200 69.200 C 46.100 70.271,45.200 71.331,45.200 71.554 C 45.200 71.778,44.965 72.104,44.678 72.280 C 44.391 72.456,43.627 73.320,42.980 74.200 C 42.334 75.080,41.579 75.944,41.302 76.120 C 41.026 76.296,40.800 76.625,40.800 76.851 C 40.800 77.077,40.271 77.790,39.625 78.436 C 38.979 79.083,38.337 79.969,38.198 80.406 C 38.060 80.843,37.778 81.200,37.573 81.200 C 37.368 81.200,37.200 81.461,37.200 81.780 C 37.200 82.099,36.917 82.519,36.571 82.712 C 35.950 83.060,35.224 84.140,34.427 85.900 C 34.203 86.395,33.835 86.800,33.610 86.800 C 33.384 86.800,33.200 87.061,33.200 87.380 C 33.200 87.699,32.975 88.104,32.699 88.280 C 32.424 88.456,31.929 89.140,31.599 89.800 C 31.270 90.460,30.775 91.238,30.500 91.529 C 30.225 91.819,30.000 92.295,30.000 92.586 C 30.000 92.877,29.730 93.218,29.400 93.345 C 29.070 93.471,28.800 93.851,28.800 94.187 C 28.800 94.524,28.654 94.800,28.475 94.800 C 28.296 94.800,27.902 95.430,27.600 96.200 C 27.298 96.970,26.904 97.600,26.725 97.600 C 26.546 97.600,26.400 97.876,26.400 98.213 C 26.400 98.549,26.141 98.924,25.824 99.046 C 25.508 99.167,25.134 99.792,24.993 100.433 C 24.852 101.075,24.604 101.600,24.443 101.600 C 24.281 101.600,23.902 102.230,23.600 103.000 C 23.298 103.770,22.919 104.400,22.757 104.400 C 22.596 104.400,22.345 104.940,22.200 105.600 C 22.055 106.260,21.800 106.800,21.632 106.800 C 21.465 106.800,21.090 107.520,20.800 108.400 C 20.510 109.280,20.135 110.000,19.968 110.000 C 19.800 110.000,19.545 110.540,19.400 111.200 C 19.255 111.860,18.985 112.400,18.800 112.400 C 18.615 112.400,18.345 112.940,18.200 113.600 C 18.055 114.260,17.789 114.800,17.608 114.800 C 17.428 114.800,17.064 115.700,16.800 116.800 C 16.536 117.900,16.162 118.800,15.968 118.800 C 15.774 118.800,15.499 119.264,15.356 119.831 C 15.214 120.399,14.670 121.750,14.147 122.834 C 13.623 123.918,12.979 125.614,12.715 126.603 C 12.450 127.591,12.111 128.400,11.962 128.400 C 11.812 128.400,11.562 129.075,11.408 129.899 C 11.253 130.724,10.992 131.489,10.828 131.599 C 10.384 131.897,8.400 138.294,8.400 139.425 C 8.400 139.961,8.236 140.400,8.035 140.400 C 7.834 140.400,7.549 141.119,7.400 141.998 C 7.252 142.877,6.989 143.683,6.815 143.791 C 6.642 143.898,6.276 145.429,6.001 147.193 C 5.727 148.957,5.362 150.400,5.190 150.400 C 5.019 150.400,4.753 151.480,4.600 152.800 C 4.447 154.120,4.177 155.200,4.001 155.200 C 3.825 155.200,3.555 156.460,3.400 158.000 C 3.245 159.540,2.980 160.800,2.809 160.800 C 2.639 160.800,2.267 163.185,1.983 166.100 C 1.699 169.015,1.337 171.490,1.179 171.600 C -0.335 172.656,-0.335 227.344,1.179 228.400 C 1.337 228.510,1.699 230.985,1.983 233.900 C 2.267 236.815,2.639 239.200,2.809 239.200 C 2.980 239.200,3.245 240.460,3.400 242.000 C 3.555 243.540,3.825 244.800,4.001 244.800 C 4.177 244.800,4.447 245.880,4.600 247.200 C 4.753 248.520,5.019 249.600,5.190 249.600 C 5.362 249.600,5.727 251.043,6.001 252.807 C 6.276 254.571,6.642 256.102,6.815 256.209 C 6.989 256.317,7.252 257.123,7.400 258.002 C 7.549 258.881,7.834 259.600,8.035 259.600 C 8.236 259.600,8.400 260.039,8.400 260.575 C 8.400 261.706,10.384 268.103,10.828 268.401 C 10.992 268.511,11.253 269.276,11.408 270.101 C 11.562 270.925,11.812 271.600,11.962 271.600 C 12.111 271.600,12.450 272.409,12.715 273.397 C 12.979 274.386,13.623 276.082,14.147 277.166 C 14.670 278.250,15.214 279.601,15.356 280.169 C 15.499 280.736,15.774 281.200,15.968 281.200 C 16.162 281.200,16.536 282.100,16.800 283.200 C 17.064 284.300,17.428 285.200,17.608 285.200 C 17.789 285.200,18.055 285.740,18.200 286.400 C 18.345 287.060,18.615 287.600,18.800 287.600 C 18.985 287.600,19.255 288.140,19.400 288.800 C 19.545 289.460,19.800 290.000,19.968 290.000 C 20.135 290.000,20.510 290.720,20.800 291.600 C 21.090 292.480,21.465 293.200,21.632 293.200 C 21.800 293.200,22.055 293.740,22.200 294.400 C 22.345 295.060,22.596 295.600,22.757 295.600 C 22.919 295.600,23.298 296.230,23.600 297.000 C 23.902 297.770,24.281 298.400,24.443 298.400 C 24.604 298.400,24.852 298.925,24.993 299.567 C 25.134 300.208,25.508 300.833,25.824 300.954 C 26.141 301.076,26.400 301.451,26.400 301.787 C 26.400 302.124,26.546 302.400,26.725 302.400 C 26.904 302.400,27.298 303.030,27.600 303.800 C 27.902 304.570,28.296 305.200,28.475 305.200 C 28.654 305.200,28.800 305.476,28.800 305.813 C 28.800 306.149,29.070 306.529,29.400 306.655 C 29.730 306.782,30.000 307.123,30.000 307.414 C 30.000 307.705,30.225 308.181,30.500 308.471 C 30.775 308.762,31.270 309.540,31.599 310.200 C 31.929 310.860,32.424 311.544,32.699 311.720 C 32.975 311.896,33.200 312.301,33.200 312.620 C 33.200 312.939,33.384 313.200,33.610 313.200 C 33.835 313.200,34.203 313.605,34.427 314.100 C 35.224 315.860,35.950 316.940,36.571 317.288 C 36.917 317.481,37.200 317.901,37.200 318.220 C 37.200 318.539,37.368 318.800,37.573 318.800 C 37.778 318.800,38.060 319.157,38.198 319.594 C 38.337 320.031,38.979 320.917,39.625 321.564 C 40.271 322.210,40.800 322.923,40.800 323.149 C 40.800 323.375,41.026 323.704,41.302 323.880 C 41.579 324.056,42.334 324.920,42.980 325.800 C 43.627 326.680,44.391 327.544,44.678 327.720 C 44.965 327.896,45.200 328.222,45.200 328.446 C 45.200 328.669,46.100 329.729,47.200 330.800 C 48.300 331.871,49.200 332.870,49.200 333.020 C 49.200 333.318,52.593 336.922,54.767 338.934 C 55.520 339.631,56.420 340.541,56.767 340.957 C 57.115 341.374,57.739 342.004,58.153 342.357 C 58.567 342.711,59.467 343.602,60.153 344.339 C 60.839 345.075,61.734 345.975,62.143 346.339 C 62.552 346.702,63.707 347.855,64.709 348.900 C 65.712 349.945,66.694 350.800,66.892 350.800 C 67.090 350.800,68.129 351.700,69.200 352.800 C 70.271 353.900,71.331 354.800,71.554 354.800 C 71.778 354.800,72.104 355.035,72.280 355.322 C 72.456 355.609,73.320 356.373,74.200 357.020 C 75.080 357.666,75.944 358.421,76.120 358.698 C 76.296 358.974,76.625 359.200,76.851 359.200 C 77.077 359.200,77.790 359.729,78.436 360.375 C 79.083 361.021,79.969 361.663,80.406 361.802 C 80.843 361.940,81.200 362.222,81.200 362.427 C 81.200 362.632,81.461 362.800,81.780 362.800 C 82.099 362.800,82.519 363.083,82.712 363.429 C 83.060 364.050,84.140 364.776,85.900 365.573 C 86.395 365.797,86.800 366.165,86.800 366.390 C 86.800 366.616,87.061 366.800,87.380 366.800 C 87.699 366.800,88.104 367.025,88.280 367.301 C 88.456 367.576,89.140 368.071,89.800 368.401 C 90.460 368.730,91.238 369.225,91.529 369.500 C 91.819 369.775,92.295 370.000,92.586 370.000 C 92.877 370.000,93.218 370.270,93.345 370.600 C 93.471 370.930,93.851 371.200,94.187 371.200 C 94.524 371.200,94.800 371.346,94.800 371.525 C 94.800 371.704,95.430 372.098,96.200 372.400 C 96.970 372.702,97.600 373.096,97.600 373.275 C 97.600 373.454,97.876 373.600,98.213 373.600 C 98.549 373.600,98.924 373.859,99.046 374.176 C 99.167 374.492,99.792 374.866,100.433 375.007 C 101.075 375.148,101.600 375.396,101.600 375.557 C 101.600 375.719,102.230 376.098,103.000 376.400 C 103.770 376.702,104.400 377.076,104.400 377.231 C 104.400 377.386,104.893 377.637,105.496 377.788 C 106.099 377.940,106.684 378.186,106.796 378.336 C 107.111 378.756,111.349 380.800,111.906 380.800 C 112.178 380.800,112.400 380.966,112.400 381.168 C 112.400 381.371,112.940 381.655,113.600 381.800 C 114.260 381.945,114.800 382.211,114.800 382.392 C 114.800 382.572,115.700 382.936,116.800 383.200 C 117.900 383.464,118.800 383.838,118.800 384.032 C 118.800 384.226,119.264 384.501,119.831 384.644 C 120.399 384.786,121.750 385.330,122.834 385.853 C 123.918 386.377,125.614 387.021,126.603 387.285 C 127.591 387.550,128.400 387.889,128.400 388.038 C 128.400 388.188,129.075 388.438,129.899 388.592 C 130.724 388.747,131.489 389.008,131.599 389.172 C 131.897 389.616,138.294 391.600,139.425 391.600 C 139.961 391.600,140.400 391.764,140.400 391.965 C 140.400 392.166,141.119 392.451,141.998 392.600 C 142.877 392.748,143.683 393.011,143.791 393.185 C 143.898 393.358,145.429 393.724,147.193 393.999 C 148.957 394.273,150.400 394.638,150.400 394.810 C 150.400 394.981,151.480 395.247,152.800 395.400 C 154.120 395.553,155.200 395.823,155.200 395.999 C 155.200 396.175,156.460 396.445,158.000 396.600 C 159.540 396.755,160.800 397.020,160.800 397.191 C 160.800 397.361,163.185 397.733,166.100 398.017 C 169.015 398.301,171.490 398.663,171.600 398.821 C 172.656 400.335,227.344 400.335,228.400 398.821 C 228.510 398.663,230.985 398.301,233.900 398.017 C 236.815 397.733,239.200 397.361,239.200 397.191 C 239.200 397.020,240.460 396.755,242.000 396.600 C 243.540 396.445,244.800 396.175,244.800 395.999 C 244.800 395.823,245.880 395.553,247.200 395.400 C 248.520 395.247,249.600 394.981,249.600 394.810 C 249.600 394.638,251.043 394.273,252.807 393.999 C 254.571 393.724,256.102 393.358,256.209 393.185 C 256.317 393.011,257.123 392.748,258.002 392.600 C 258.881 392.451,259.600 392.166,259.600 391.965 C 259.600 391.764,260.039 391.600,260.575 391.600 C 261.706 391.600,268.103 389.616,268.401 389.172 C 268.511 389.008,269.276 388.747,270.101 388.592 C 270.925 388.438,271.600 388.188,271.600 388.038 C 271.600 387.889,272.409 387.550,273.397 387.285 C 274.386 387.021,276.082 386.377,277.166 385.853 C 278.250 385.330,279.601 384.786,280.169 384.644 C 280.736 384.501,281.200 384.226,281.200 384.032 C 281.200 383.838,282.100 383.464,283.200 383.200 C 284.300 382.936,285.200 382.572,285.200 382.392 C 285.200 382.211,285.740 381.945,286.400 381.800 C 287.060 381.655,287.600 381.371,287.600 381.168 C 287.600 380.966,287.822 380.800,288.094 380.800 C 288.651 380.800,292.889 378.756,293.204 378.336 C 293.316 378.186,293.901 377.940,294.504 377.788 C 295.107 377.637,295.600 377.386,295.600 377.231 C 295.600 377.076,296.230 376.702,297.000 376.400 C 297.770 376.098,298.400 375.719,298.400 375.557 C 298.400 375.396,298.925 375.148,299.567 375.007 C 300.208 374.866,300.833 374.492,300.954 374.176 C 301.076 373.859,301.451 373.600,301.787 373.600 C 302.124 373.600,302.400 373.454,302.400 373.275 C 302.400 373.096,303.030 372.702,303.800 372.400 C 304.570 372.098,305.200 371.704,305.200 371.525 C 305.200 371.346,305.476 371.200,305.813 371.200 C 306.149 371.200,306.529 370.930,306.655 370.600 C 306.782 370.270,307.123 370.000,307.414 370.000 C 307.705 370.000,308.181 369.775,308.471 369.500 C 308.762 369.225,309.540 368.730,310.200 368.401 C 310.860 368.071,311.544 367.576,311.720 367.301 C 311.896 367.025,312.301 366.800,312.620 366.800 C 312.939 366.800,313.200 366.616,313.200 366.390 C 313.200 366.165,313.605 365.797,314.100 365.573 C 315.860 364.776,316.940 364.050,317.288 363.429 C 317.481 363.083,317.901 362.800,318.220 362.800 C 318.539 362.800,318.800 362.632,318.800 362.427 C 318.800 362.222,319.157 361.940,319.594 361.802 C 320.031 361.663,320.917 361.021,321.564 360.375 C 322.210 359.729,322.923 359.200,323.149 359.200 C 323.375 359.200,323.704 358.974,323.880 358.698 C 324.056 358.421,324.920 357.666,325.800 357.020 C 326.680 356.373,327.544 355.609,327.720 355.322 C 327.896 355.035,328.222 354.800,328.446 354.800 C 328.669 354.800,329.729 353.900,330.800 352.800 C 331.871 351.700,332.910 350.800,333.108 350.800 C 333.306 350.800,334.296 349.945,335.309 348.900 C 336.322 347.855,337.747 346.430,338.475 345.734 C 339.204 345.038,340.206 344.048,340.702 343.534 C 341.834 342.361,342.361 341.834,343.534 340.702 C 344.048 340.206,345.038 339.204,345.734 338.475 C 346.430 337.747,347.855 336.322,348.900 335.309 C 349.945 334.296,350.800 333.306,350.800 333.108 C 350.800 332.910,351.700 331.871,352.800 330.800 C 353.900 329.729,354.800 328.669,354.800 328.446 C 354.800 328.222,355.035 327.896,355.322 327.720 C 355.609 327.544,356.373 326.680,357.020 325.800 C 357.666 324.920,358.421 324.056,358.698 323.880 C 358.974 323.704,359.200 323.375,359.200 323.149 C 359.200 322.923,359.729 322.210,360.375 321.564 C 361.021 320.917,361.663 320.031,361.802 319.594 C 361.940 319.157,362.222 318.800,362.427 318.800 C 362.632 318.800,362.800 318.539,362.800 318.220 C 362.800 317.901,363.083 317.481,363.429 317.288 C 364.050 316.940,364.776 315.860,365.573 314.100 C 365.797 313.605,366.165 313.200,366.390 313.200 C 366.616 313.200,366.800 312.939,366.800 312.620 C 366.800 312.301,367.025 311.896,367.301 311.720 C 367.576 311.544,368.071 310.860,368.401 310.200 C 368.730 309.540,369.225 308.762,369.500 308.471 C 369.775 308.181,370.000 307.705,370.000 307.414 C 370.000 307.123,370.270 306.782,370.600 306.655 C 370.930 306.529,371.200 306.149,371.200 305.813 C 371.200 305.476,371.346 305.200,371.525 305.200 C 371.704 305.200,372.098 304.570,372.400 303.800 C 372.702 303.030,373.096 302.400,373.275 302.400 C 373.454 302.400,373.600 302.124,373.600 301.787 C 373.600 301.451,373.859 301.076,374.176 300.954 C 374.492 300.833,374.866 300.208,375.007 299.567 C 375.148 298.925,375.396 298.400,375.557 298.400 C 375.719 298.400,376.098 297.770,376.400 297.000 C 376.702 296.230,377.076 295.600,377.231 295.600 C 377.386 295.600,377.637 295.107,377.788 294.504 C 377.940 293.901,378.186 293.316,378.336 293.204 C 378.756 292.889,380.800 288.651,380.800 288.094 C 380.800 287.822,380.966 287.600,381.168 287.600 C 381.371 287.600,381.655 287.060,381.800 286.400 C 381.945 285.740,382.211 285.200,382.392 285.200 C 382.572 285.200,382.936 284.300,383.200 283.200 C 383.464 282.100,383.838 281.200,384.032 281.200 C 384.226 281.200,384.501 280.736,384.644 280.169 C 384.786 279.601,385.330 278.250,385.853 277.166 C 386.377 276.082,387.021 274.386,387.285 273.397 C 387.550 272.409,387.889 271.600,388.038 271.600 C 388.188 271.600,388.438 270.925,388.592 270.101 C 388.747 269.276,389.008 268.511,389.172 268.401 C 389.616 268.103,391.600 261.706,391.600 260.575 C 391.600 260.039,391.764 259.600,391.965 259.600 C 392.166 259.600,392.451 258.881,392.600 258.002 C 392.748 257.123,393.011 256.317,393.185 256.209 C 393.358 256.102,393.724 254.571,393.999 252.807 C 394.273 251.043,394.638 249.600,394.810 249.600 C 394.981 249.600,395.247 248.520,395.400 247.200 C 395.553 245.880,395.823 244.800,395.999 244.800 C 396.175 244.800,396.445 243.540,396.600 242.000 C 396.755 240.460,397.020 239.200,397.191 239.200 C 397.361 239.200,397.733 236.815,398.017 233.900 C 398.301 230.985,398.663 228.510,398.821 228.400 C 400.335 227.344,400.335 172.656,398.821 171.600 C 398.663 171.490,398.301 169.015,398.017 166.100 C 397.733 163.185,397.361 160.800,397.191 160.800 C 397.020 160.800,396.755 159.540,396.600 158.000 C 396.445 156.460,396.175 155.200,395.999 155.200 C 395.823 155.200,395.553 154.120,395.400 152.800 C 395.247 151.480,394.981 150.400,394.810 150.400 C 394.638 150.400,394.273 148.957,393.999 147.193 C 393.724 145.429,393.358 143.898,393.185 143.791 C 393.011 143.683,392.748 142.877,392.600 141.998 C 392.451 141.119,392.166 140.400,391.965 140.400 C 391.764 140.400,391.600 139.961,391.600 139.425 C 391.600 138.294,389.616 131.897,389.172 131.599 C 389.008 131.489,388.747 130.724,388.592 129.899 C 388.438 129.075,388.188 128.400,388.038 128.400 C 387.889 128.400,387.550 127.591,387.285 126.603 C 387.021 125.614,386.377 123.918,385.853 122.834 C 385.330 121.750,384.786 120.399,384.644 119.831 C 384.501 119.264,384.226 118.800,384.032 118.800 C 383.838 118.800,383.464 117.900,383.200 116.800 C 382.936 115.700,382.572 114.800,382.392 114.800 C 382.211 114.800,381.945 114.260,381.800 113.600 C 381.655 112.940,381.371 112.400,381.168 112.400 C 380.966 112.400,380.800 112.178,380.800 111.906 C 380.800 111.349,378.756 107.111,378.336 106.796 C 378.186 106.684,377.940 106.099,377.788 105.496 C 377.637 104.893,377.386 104.400,377.231 104.400 C 377.076 104.400,376.702 103.770,376.400 103.000 C 376.098 102.230,375.719 101.600,375.557 101.600 C 375.396 101.600,375.148 101.075,375.007 100.433 C 374.866 99.792,374.492 99.167,374.176 99.046 C 373.859 98.924,373.600 98.549,373.600 98.213 C 373.600 97.876,373.454 97.600,373.275 97.600 C 373.096 97.600,372.702 96.970,372.400 96.200 C 372.098 95.430,371.704 94.800,371.525 94.800 C 371.346 94.800,371.200 94.524,371.200 94.187 C 371.200 93.851,370.930 93.471,370.600 93.345 C 370.270 93.218,370.000 92.877,370.000 92.586 C 370.000 92.295,369.775 91.819,369.500 91.529 C 369.225 91.238,368.730 90.460,368.401 89.800 C 368.071 89.140,367.576 88.456,367.301 88.280 C 367.025 88.104,366.800 87.699,366.800 87.380 C 366.800 87.061,366.616 86.800,366.390 86.800 C 366.165 86.800,365.797 86.395,365.573 85.900 C 364.776 84.140,364.050 83.060,363.429 82.712 C 363.083 82.519,362.800 82.099,362.800 81.780 C 362.800 81.461,362.632 81.200,362.427 81.200 C 362.222 81.200,361.940 80.843,361.802 80.406 C 361.663 79.969,361.021 79.083,360.375 78.436 C 359.729 77.790,359.200 77.077,359.200 76.851 C 359.200 76.625,358.974 76.296,358.698 76.120 C 358.421 75.944,357.666 75.080,357.020 74.200 C 356.373 73.320,355.609 72.456,355.322 72.280 C 355.035 72.104,354.800 71.778,354.800 71.554 C 354.800 71.331,353.900 70.271,352.800 69.200 C 351.700 68.129,350.800 67.090,350.800 66.892 C 350.800 66.694,349.945 65.712,348.900 64.709 C 347.855 63.707,346.702 62.552,346.339 62.143 C 345.975 61.734,345.075 60.839,344.339 60.153 C 343.602 59.467,342.711 58.567,342.357 58.153 C 342.004 57.739,341.374 57.115,340.957 56.767 C 340.541 56.420,339.631 55.520,338.934 54.767 C 336.922 52.593,333.318 49.200,333.020 49.200 C 332.870 49.200,331.871 48.300,330.800 47.200 C 329.729 46.100,328.669 45.200,328.446 45.200 C 328.222 45.200,327.896 44.965,327.720 44.678 C 327.544 44.391,326.680 43.627,325.800 42.980 C 324.920 42.334,324.056 41.579,323.880 41.302 C 323.704 41.026,323.375 40.800,323.149 40.800 C 322.923 40.800,322.210 40.271,321.564 39.625 C 320.917 38.979,320.031 38.337,319.594 38.198 C 319.157 38.060,318.800 37.778,318.800 37.573 C 318.800 37.368,318.539 37.200,318.220 37.200 C 317.901 37.200,317.481 36.917,317.288 36.571 C 316.940 35.950,315.860 35.224,314.100 34.427 C 313.605 34.203,313.200 33.835,313.200 33.610 C 313.200 33.384,312.939 33.200,312.620 33.200 C 312.301 33.200,311.896 32.975,311.720 32.699 C 311.544 32.424,310.860 31.929,310.200 31.599 C 309.540 31.270,308.762 30.775,308.471 30.500 C 308.181 30.225,307.705 30.000,307.414 30.000 C 307.123 30.000,306.782 29.730,306.655 29.400 C 306.529 29.070,306.149 28.800,305.813 28.800 C 305.476 28.800,305.200 28.654,305.200 28.475 C 305.200 28.296,304.570 27.902,303.800 27.600 C 303.030 27.298,302.400 26.904,302.400 26.725 C 302.400 26.546,302.124 26.400,301.787 26.400 C 301.451 26.400,301.076 26.141,300.954 25.824 C 300.833 25.508,300.208 25.134,299.567 24.993 C 298.925 24.852,298.400 24.604,298.400 24.443 C 298.400 24.281,297.770 23.902,297.000 23.600 C 296.230 23.298,295.600 22.919,295.600 22.757 C 295.600 22.596,295.060 22.345,294.400 22.200 C 293.740 22.055,293.200 21.800,293.200 21.632 C 293.200 21.465,292.480 21.090,291.600 20.800 C 290.720 20.510,290.000 20.135,290.000 19.968 C 290.000 19.800,289.460 19.545,288.800 19.400 C 288.140 19.255,287.600 18.985,287.600 18.800 C 287.600 18.615,287.060 18.345,286.400 18.200 C 285.740 18.055,285.200 17.789,285.200 17.608 C 285.200 17.428,284.300 17.064,283.200 16.800 C 282.100 16.536,281.200 16.162,281.200 15.968 C 281.200 15.774,280.736 15.499,280.169 15.356 C 279.601 15.214,278.250 14.670,277.166 14.147 C 276.082 13.623,274.386 12.979,273.397 12.715 C 272.409 12.450,271.600 12.111,271.600 11.962 C 271.600 11.812,270.925 11.562,270.101 11.408 C 269.276 11.253,268.511 10.992,268.401 10.828 C 268.103 10.384,261.706 8.400,260.575 8.400 C 260.039 8.400,259.600 8.236,259.600 8.035 C 259.600 7.834,258.881 7.549,258.002 7.400 C 257.123 7.252,256.317 6.989,256.209 6.815 C 256.102 6.642,254.571 6.276,252.807 6.001 C 251.043 5.727,249.600 5.362,249.600 5.190 C 249.600 5.019,248.520 4.753,247.200 4.600 C 245.880 4.447,244.800 4.177,244.800 4.001 C 244.800 3.825,243.540 3.555,242.000 3.400 C 240.460 3.245,239.200 2.980,239.200 2.809 C 239.200 2.639,236.815 2.267,233.900 1.983 C 230.985 1.699,228.510 1.337,228.400 1.179 C 227.670 0.133,189.833 -0.379,177.206 0.487 M215.600 5.221 C 294.176 11.051,363.054 66.009,386.522 141.600 C 402.743 193.847,396.912 248.125,369.860 296.700 C 367.479 300.975,367.547 300.949,364.737 298.660 C 363.562 297.703,359.720 294.748,356.200 292.093 C 352.680 289.439,346.830 284.983,343.200 282.191 C 339.570 279.399,333.540 274.797,329.800 271.965 C 323.344 267.075,320.265 264.729,301.763 250.600 C 297.441 247.300,291.991 243.191,289.653 241.469 C 285.389 238.331,284.788 237.726,285.468 237.254 C 285.840 236.995,289.589 229.440,289.614 228.898 C 289.621 228.734,289.975 227.880,290.400 227.000 C 290.825 226.120,291.179 225.121,291.186 224.780 C 291.194 224.439,291.367 223.989,291.571 223.780 C 291.979 223.363,294.141 216.401,295.043 212.600 C 302.473 181.308,295.293 148.701,275.557 124.100 C 273.748 121.845,272.010 120.000,271.696 120.000 C 271.120 120.000,262.105 126.044,255.737 130.700 C 253.857 132.075,252.156 133.200,251.959 133.200 C 251.058 133.200,251.790 134.664,253.939 137.161 C 260.499 144.783,269.600 161.286,269.600 165.559 C 269.600 166.437,273.754 166.397,282.922 165.431 C 285.431 165.166,284.512 165.882,277.991 169.268 C 272.140 172.307,271.046 173.027,271.405 173.608 C 271.696 174.079,272.437 180.629,272.655 184.662 C 273.071 192.353,271.011 207.008,268.840 211.800 C 268.641 212.240,268.080 213.680,267.593 215.000 C 259.096 238.048,238.328 256.203,213.800 262.025 C 162.425 274.220,114.350 231.844,119.962 179.312 C 120.438 174.853,120.476 174.605,120.972 172.600 C 121.135 171.940,121.708 169.600,122.246 167.400 C 122.783 165.200,123.382 163.040,123.577 162.600 C 123.772 162.160,124.603 160.113,125.423 158.051 C 126.763 154.684,127.841 152.540,130.780 147.400 C 135.370 139.372,144.938 129.495,154.029 123.401 C 156.750 121.577,163.590 117.995,168.200 115.982 C 187.150 107.702,214.467 109.667,233.698 120.692 L 236.797 122.468 249.068 116.324 C 255.818 112.945,261.391 110.004,261.454 109.790 C 261.717 108.888,250.180 101.038,242.800 97.097 C 226.053 88.154,200.521 83.323,184.028 85.976 C 172.994 87.750,169.848 88.407,165.654 89.813 C 164.034 90.356,162.457 90.800,162.149 90.800 C 161.841 90.800,161.277 90.971,160.895 91.181 C 159.978 91.683,157.908 92.567,155.200 93.614 C 152.108 94.809,144.625 98.628,141.999 100.352 C 140.785 101.148,139.307 102.051,138.713 102.358 C 134.839 104.363,124.254 113.543,119.260 119.228 C 115.369 123.657,114.723 124.432,113.435 126.200 C 112.794 127.080,112.119 127.860,111.935 127.933 C 111.751 128.007,111.600 128.322,111.600 128.633 C 111.600 128.945,111.455 129.200,111.277 129.200 C 110.831 129.200,105.018 138.991,102.922 143.273 C 100.307 148.613,97.263 156.922,95.766 162.800 C 94.653 167.175,94.321 168.787,93.834 172.200 C 92.850 179.095,92.774 180.205,92.762 187.790 C 92.750 195.491,92.995 199.879,93.590 202.600 C 93.782 203.480,94.148 205.550,94.403 207.200 C 94.658 208.850,95.023 210.740,95.213 211.400 C 95.404 212.060,95.859 213.770,96.223 215.200 C 102.338 239.196,118.969 261.593,140.855 275.305 C 144.834 277.798,154.347 282.800,155.108 282.800 C 155.296 282.800,156.159 283.138,157.025 283.550 C 162.657 286.233,175.997 289.557,185.400 290.621 C 188.353 290.955,200.960 290.826,205.000 290.421 C 221.661 288.750,236.961 283.566,249.800 275.242 C 251.340 274.244,252.996 273.211,253.481 272.947 C 253.965 272.683,254.595 272.269,254.881 272.026 C 255.630 271.390,256.850 270.420,259.193 268.600 C 260.325 267.720,261.915 266.415,262.726 265.700 C 264.884 263.797,264.494 263.640,271.636 269.276 C 273.592 270.819,284.601 279.227,292.968 285.568 C 296.911 288.555,302.671 292.927,305.768 295.283 C 308.866 297.638,313.560 301.196,316.200 303.188 C 318.840 305.180,322.350 307.870,324.000 309.166 C 326.973 311.500,335.616 318.056,343.483 323.944 C 348.530 327.721,348.558 327.264,342.898 333.361 C 260.652 421.959,115.704 414.257,43.831 317.469 C -45.201 197.575,25.381 27.879,173.200 6.434 C 177.859 5.758,181.481 5.439,193.600 4.637 C 196.808 4.424,209.350 4.758,215.600 5.221 " stroke="none" fill="#f9f9fa" fill-rule="evenodd"></path><path id="path1" d="M337.800 71.654 C 332.954 74.101,263.439 109.070,247.904 116.876 C 241.724 119.981,236.601 122.324,236.342 122.164 C 236.086 122.006,235.980 122.044,236.107 122.249 C 236.233 122.454,234.686 123.450,232.668 124.462 C 230.651 125.475,225.580 128.014,221.400 130.106 C 217.220 132.197,193.820 143.944,169.400 156.209 C 116.459 182.801,120.479 180.800,119.994 180.800 C 119.767 180.800,119.600 182.218,119.600 184.145 C 119.600 187.426,119.617 187.486,120.527 187.312 C 121.037 187.214,124.772 187.336,128.827 187.583 C 132.882 187.830,142.140 188.137,149.400 188.266 C 156.660 188.394,163.678 188.612,164.995 188.750 C 169.384 189.208,168.826 189.775,156.000 197.892 C 154.790 198.658,151.474 200.796,148.632 202.642 C 145.789 204.489,143.402 206.000,143.327 206.000 C 143.253 206.000,142.295 206.630,141.200 207.400 C 140.105 208.170,139.148 208.800,139.074 208.800 C 138.999 208.800,136.075 210.689,132.574 212.999 C 129.073 215.308,126.039 217.254,125.833 217.322 C 123.725 218.025,136.909 237.246,143.830 243.562 C 151.692 250.736,165.505 259.185,166.491 257.422 C 166.683 257.080,166.979 256.800,167.150 256.800 C 167.320 256.800,169.426 255.701,171.830 254.357 C 174.233 253.013,177.910 251.010,180.000 249.905 C 182.090 248.800,185.330 247.046,187.200 246.007 C 190.399 244.230,192.794 242.918,198.000 240.091 C 199.210 239.434,204.070 236.781,208.800 234.195 C 221.792 227.093,222.476 226.720,228.600 223.407 C 247.104 213.395,249.662 211.851,246.600 212.542 C 245.197 212.858,238.568 213.930,229.000 215.389 C 225.260 215.959,220.040 216.778,217.400 217.209 C 214.760 217.640,210.800 218.271,208.600 218.611 C 206.400 218.951,202.890 219.506,200.800 219.845 C 198.710 220.183,196.010 220.615,194.800 220.804 C 187.196 221.993,182.061 222.834,181.147 223.039 C 178.409 223.653,179.352 221.316,182.498 219.690 C 183.874 218.979,186.980 217.352,189.400 216.076 C 191.820 214.800,197.400 211.896,201.800 209.624 C 206.200 207.351,209.980 205.360,210.200 205.200 C 210.420 205.039,212.850 203.738,215.600 202.308 C 218.350 200.878,221.770 199.078,223.200 198.308 C 227.007 196.259,240.624 189.090,246.400 186.094 C 249.150 184.668,251.940 183.187,252.600 182.803 C 253.737 182.142,263.172 177.207,268.800 174.329 C 270.230 173.598,271.490 172.884,271.600 172.742 C 271.710 172.599,274.586 171.036,277.991 169.268 C 284.512 165.882,285.431 165.166,282.922 165.431 C 281.595 165.571,272.024 166.245,269.800 166.356 C 267.961 166.447,259.967 167.213,257.000 167.582 C 255.240 167.800,251.010 168.173,247.600 168.410 C 244.190 168.647,241.084 168.935,240.697 169.048 C 240.311 169.162,237.701 169.413,234.897 169.607 C 232.094 169.800,225.750 170.337,220.800 170.801 C 208.450 171.958,199.537 172.757,198.700 172.780 C 196.779 172.834,197.990 170.927,201.300 168.686 C 203.115 167.457,205.860 165.570,207.400 164.493 C 208.940 163.416,214.340 159.654,219.400 156.132 C 237.948 143.222,240.293 141.587,245.151 138.176 C 247.873 136.263,250.438 134.610,250.851 134.503 C 251.263 134.395,251.600 134.058,251.600 133.753 C 251.600 133.449,251.761 133.200,251.959 133.200 C 252.156 133.200,253.857 132.075,255.737 130.700 C 260.464 127.244,271.065 120.000,271.394 120.000 C 271.543 120.000,272.416 119.398,273.333 118.663 C 274.758 117.520,279.679 114.058,289.200 107.498 C 296.524 102.451,299.293 100.526,302.741 98.078 C 304.864 96.572,307.860 94.463,309.400 93.391 C 310.940 92.320,314.900 89.560,318.200 87.259 C 321.500 84.958,325.280 82.329,326.600 81.416 C 327.920 80.504,330.260 78.873,331.800 77.792 C 333.340 76.711,336.297 74.650,338.371 73.213 C 344.185 69.185,343.952 68.549,337.800 71.654 M101.953 232.290 C 101.869 232.516,99.910 233.924,97.600 235.419 C 89.705 240.527,86.999 242.270,83.700 244.373 C 78.807 247.493,79.031 247.565,90.000 246.405 C 91.870 246.207,97.045 245.824,101.500 245.554 C 105.955 245.283,109.600 244.972,109.600 244.863 C 109.600 244.753,109.345 244.379,109.034 244.031 C 108.410 243.336,104.001 235.647,103.998 235.249 C 103.993 234.666,102.093 231.917,101.953 232.290 M118.370 258.297 C 118.034 258.684,114.183 262.240,109.813 266.200 C 105.443 270.160,101.673 273.581,101.434 273.802 C 101.195 274.023,99.479 275.553,97.620 277.202 C 95.762 278.851,93.062 281.294,91.620 282.631 C 90.179 283.968,87.200 286.662,85.000 288.618 C 82.800 290.574,80.910 292.274,80.800 292.397 C 80.570 292.653,69.859 302.330,66.228 305.561 C 64.893 306.749,62.090 309.283,60.000 311.190 C 57.910 313.098,55.030 315.715,53.600 317.004 C 49.219 320.955,49.335 321.138,54.440 318.336 C 59.666 315.467,60.465 315.031,68.600 310.608 C 72.560 308.454,76.745 306.177,77.900 305.546 C 79.055 304.916,81.035 303.835,82.300 303.145 C 83.565 302.454,85.410 301.439,86.400 300.888 C 87.390 300.337,89.730 299.080,91.600 298.095 C 93.470 297.110,95.720 295.896,96.600 295.397 C 97.480 294.898,99.010 294.044,100.000 293.500 C 100.990 292.956,102.880 291.915,104.200 291.187 C 105.520 290.459,109.750 288.158,113.600 286.073 C 117.450 283.988,121.410 281.834,122.400 281.286 C 123.390 280.739,125.280 279.718,126.600 279.017 C 130.753 276.814,134.570 274.694,135.389 274.137 C 135.823 273.842,136.633 273.595,137.189 273.588 C 138.150 273.576,138.160 273.553,137.400 273.113 C 134.921 271.677,128.175 266.159,124.149 262.274 C 118.836 257.146,119.172 257.377,118.370 258.297 " stroke="none" fill="#e9c224" fill-rule="evenodd"></path><path id="path2" d="M193.600 4.637 C 181.481 5.439,177.859 5.758,173.200 6.434 C 25.381 27.879,-45.201 197.575,43.831 317.469 C 115.704 414.257,260.652 421.959,342.898 333.361 C 348.558 327.264,348.530 327.721,343.483 323.944 C 335.616 318.056,326.973 311.500,324.000 309.166 C 322.350 307.870,318.840 305.180,316.200 303.188 C 313.560 301.196,308.866 297.638,305.768 295.283 C 302.671 292.927,296.911 288.555,292.968 285.568 C 284.601 279.227,273.592 270.819,271.636 269.276 C 264.494 263.640,264.884 263.797,262.726 265.700 C 261.915 266.415,260.325 267.720,259.193 268.600 C 256.850 270.420,255.630 271.390,254.881 272.026 C 254.595 272.269,253.965 272.683,253.481 272.947 C 252.996 273.211,251.340 274.244,249.800 275.242 C 236.961 283.566,221.661 288.750,205.000 290.421 C 200.960 290.826,188.353 290.955,185.400 290.621 C 175.997 289.557,162.657 286.233,157.025 283.550 C 156.159 283.138,155.296 282.800,155.108 282.800 C 154.433 282.800,145.212 278.013,141.683 275.830 C 137.974 273.535,136.755 273.207,135.389 274.137 C 134.570 274.694,130.753 276.814,126.600 279.017 C 125.280 279.718,123.390 280.739,122.400 281.286 C 121.410 281.834,117.450 283.988,113.600 286.073 C 109.750 288.158,105.520 290.459,104.200 291.187 C 102.880 291.915,100.990 292.956,100.000 293.500 C 99.010 294.044,97.480 294.898,96.600 295.397 C 95.720 295.896,93.470 297.110,91.600 298.095 C 89.730 299.080,87.390 300.337,86.400 300.888 C 85.410 301.439,83.565 302.454,82.300 303.145 C 81.035 303.835,79.055 304.916,77.900 305.546 C 76.745 306.177,72.560 308.454,68.600 310.608 C 60.465 315.031,59.666 315.467,54.440 318.336 C 49.335 321.138,49.219 320.955,53.600 317.004 C 55.030 315.715,57.910 313.098,60.000 311.190 C 62.090 309.283,64.893 306.749,66.228 305.561 C 69.859 302.330,80.570 292.653,80.800 292.397 C 80.910 292.274,82.800 290.574,85.000 288.618 C 87.200 286.662,90.177 283.968,91.615 282.631 C 93.053 281.294,95.033 279.495,96.015 278.633 C 98.617 276.349,112.527 263.771,116.400 260.201 C 119.535 257.311,119.503 257.597,117.001 254.742 C 115.776 253.344,113.658 250.625,112.294 248.700 L 109.815 245.200 108.021 245.200 C 105.274 245.200,93.437 246.074,83.100 247.041 C 79.549 247.373,79.642 246.960,83.700 244.373 C 85.515 243.216,88.440 241.339,90.200 240.203 C 103.332 231.722,102.586 232.295,101.978 231.160 C 100.497 228.393,97.387 219.766,96.223 215.200 C 95.859 213.770,95.404 212.060,95.213 211.400 C 95.023 210.740,94.658 208.850,94.403 207.200 C 94.148 205.550,93.782 203.480,93.590 202.600 C 92.995 199.879,92.750 195.491,92.762 187.790 C 92.774 180.205,92.850 179.095,93.834 172.200 C 94.321 168.787,94.653 167.175,95.766 162.800 C 97.263 156.922,100.307 148.613,102.922 143.273 C 105.018 138.991,110.831 129.200,111.277 129.200 C 111.455 129.200,111.600 128.945,111.600 128.633 C 111.600 128.322,111.751 128.007,111.935 127.933 C 112.119 127.860,112.794 127.080,113.435 126.200 C 119.202 118.280,132.886 105.374,138.713 102.358 C 139.307 102.051,140.785 101.148,141.999 100.352 C 144.625 98.628,152.108 94.809,155.200 93.614 C 157.908 92.567,159.978 91.683,160.895 91.181 C 161.277 90.971,161.841 90.800,162.149 90.800 C 162.457 90.800,164.034 90.356,165.654 89.813 C 169.848 88.407,172.994 87.750,184.028 85.976 C 188.549 85.249,202.244 85.458,208.800 86.355 C 226.803 88.817,242.084 95.049,256.694 105.887 C 259.166 107.720,261.423 109.311,261.709 109.420 C 261.996 109.530,272.933 104.238,286.015 97.660 C 330.903 75.088,342.078 69.544,342.279 69.745 C 342.677 70.144,341.913 70.802,337.690 73.704 C 335.330 75.325,332.410 77.350,331.200 78.205 C 329.990 79.060,327.920 80.505,326.600 81.418 C 325.280 82.330,321.410 85.022,318.000 87.401 C 314.590 89.780,310.360 92.722,308.600 93.939 C 306.840 95.156,304.500 96.807,303.400 97.608 C 302.300 98.409,299.330 100.482,296.800 102.216 C 294.270 103.949,291.185 106.094,289.944 106.983 C 288.704 107.873,284.341 110.919,280.250 113.752 C 276.159 116.586,272.645 119.106,272.443 119.352 C 272.198 119.650,273.206 121.203,275.464 124.000 C 295.252 148.523,302.485 181.254,295.043 212.600 C 294.141 216.401,291.979 223.363,291.571 223.780 C 291.367 223.989,291.194 224.439,291.186 224.780 C 291.179 225.121,290.825 226.120,290.400 227.000 C 289.975 227.880,289.621 228.734,289.614 228.898 C 289.589 229.440,285.840 236.995,285.468 237.254 C 284.788 237.726,285.389 238.331,289.653 241.469 C 291.991 243.191,297.441 247.300,301.763 250.600 C 320.265 264.729,323.344 267.075,329.800 271.965 C 333.540 274.797,339.570 279.399,343.200 282.191 C 346.830 284.983,352.680 289.439,356.200 292.093 C 359.720 294.748,363.562 297.703,364.737 298.660 C 367.547 300.949,367.479 300.975,369.860 296.700 C 423.837 199.777,389.393 80.128,292.467 27.852 C 263.050 11.986,223.361 2.667,193.600 4.637 M190.200 111.058 C 182.960 111.616,173.183 113.804,168.200 115.982 C 155.120 121.696,147.003 127.534,137.588 138.000 C 135.969 139.799,131.962 145.332,130.780 147.400 C 127.841 152.540,126.763 154.684,125.423 158.051 C 124.603 160.113,123.772 162.160,123.577 162.600 C 123.382 163.040,122.783 165.200,122.246 167.400 C 121.708 169.600,121.135 171.940,120.972 172.600 C 120.448 174.719,120.411 174.953,120.145 177.900 C 120.001 179.495,119.996 180.800,120.135 180.800 C 120.459 180.800,117.790 182.132,169.400 156.209 C 210.002 135.816,222.224 129.685,232.711 124.452 L 236.422 122.600 235.311 121.704 C 226.943 114.956,205.444 109.882,190.200 111.058 M245.272 138.100 C 242.374 140.135,237.437 143.583,234.302 145.763 C 226.175 151.410,210.698 162.187,207.400 164.493 C 205.860 165.570,203.115 167.457,201.300 168.686 C 197.990 170.927,196.779 172.834,198.700 172.780 C 199.551 172.756,208.674 171.938,220.800 170.799 C 225.750 170.334,231.870 169.799,234.400 169.610 C 236.930 169.421,240.980 169.072,243.400 168.834 C 249.839 168.202,255.889 167.659,262.000 167.167 C 270.626 166.472,270.225 166.849,268.184 161.348 C 264.977 152.704,259.900 144.087,253.920 137.139 C 250.998 133.744,251.563 133.682,245.272 138.100 M268.600 174.342 C 267.500 174.957,263.720 176.955,260.200 178.782 C 256.680 180.610,253.260 182.419,252.600 182.803 C 251.940 183.187,249.150 184.668,246.400 186.094 C 240.624 189.090,227.007 196.259,223.200 198.308 C 221.770 199.078,218.350 200.878,215.600 202.308 C 212.850 203.738,210.420 205.039,210.200 205.200 C 209.980 205.360,206.200 207.351,201.800 209.624 C 197.400 211.896,191.820 214.800,189.400 216.076 C 186.980 217.352,183.874 218.979,182.498 219.690 C 179.352 221.316,178.409 223.653,181.147 223.039 C 182.061 222.834,187.196 221.993,194.800 220.804 C 196.010 220.615,198.710 220.183,200.800 219.845 C 202.890 219.506,206.400 218.951,208.600 218.611 C 210.800 218.271,214.760 217.640,217.400 217.209 C 220.040 216.778,225.260 215.959,229.000 215.389 C 238.568 213.930,245.197 212.858,246.600 212.542 C 249.662 211.851,247.104 213.395,228.600 223.407 C 222.476 226.720,221.792 227.093,208.800 234.195 C 204.070 236.781,199.210 239.434,198.000 240.091 C 192.794 242.918,190.399 244.230,187.200 246.007 C 185.330 247.046,182.090 248.800,180.000 249.905 C 177.910 251.010,174.275 252.990,171.922 254.306 C 169.569 255.621,167.364 256.805,167.022 256.936 C 166.520 257.129,166.083 258.400,166.519 258.400 C 166.585 258.400,168.700 259.095,171.219 259.945 C 210.452 273.180,253.555 253.078,267.593 215.000 C 268.080 213.680,268.641 212.240,268.840 211.800 C 271.968 204.895,273.464 188.502,271.996 177.227 C 271.388 172.557,271.550 172.695,268.600 174.342 M119.749 187.789 C 118.709 190.498,121.040 205.330,123.585 212.200 C 124.074 213.520,124.667 215.185,124.904 215.900 C 125.496 217.688,125.422 217.716,132.572 213.000 C 136.074 210.690,138.999 208.800,139.074 208.800 C 139.148 208.800,140.105 208.170,141.200 207.400 C 142.295 206.630,143.253 206.000,143.327 206.000 C 143.402 206.000,145.789 204.489,148.632 202.642 C 151.474 200.796,154.790 198.658,156.000 197.892 C 171.312 188.202,171.437 188.597,153.000 188.378 C 143.484 188.265,137.908 188.066,125.506 187.400 C 120.524 187.132,119.987 187.168,119.749 187.789 " stroke="none" fill="#043b62" fill-rule="evenodd"></path></g></svg>