<svg width="427" height="427" viewBox="0 0 427 427" xmlns="http://www.w3.org/2000/svg" xmlns:xlink="http://www.w3.org/1999/xlink" overflow="hidden"><g fill="#F7F7F7"></g><g fill="#EFEFEF"></g><g fill="#E6E6E6"></g><g fill="#DEDEDE"></g><g fill="#D6D6D6"></g><g fill="#CECECE"></g><g fill="#C5C5C5"></g><g fill="#BDBDBD"></g><g fill="#B5B5B5"></g><g fill="#ADADAD"></g><g fill="#A5A5A5"></g><g fill="#9C9C9C"><path d="M155 394 155 384 178.5 384 202 384 201.8 351.3 201.5 318.6 196 317.5C177.1 313.6 161.6 304.8 147.9 290.2 139.7 281.4 135.4 274.9 130.5 263.3 125 250.6 124 243.2 124 216.5L124 193 134 193 144 193 144 215C144 241.7 145.1 248.5 151.6 261.8 159.2 277.5 172.9 289.5 190.2 295.8 196.9 298.3 198.7 298.5 213 298.5 227.3 298.5 229.1 298.3 235.8 295.8 246.7 291.9 253.6 287.4 262.2 278.8 268.3 272.6 270.8 269.3 274.4 261.8 280.9 248.5 282 241.7 282 215L282 193 292.1 193 302.2 193 301.7 219.8C301.2 250.2 300.9 252.4 293 268.5 280.9 293.5 256.5 312.2 229 317.4L222.5 318.6 222.2 351.3 222 384 247 384 272 384 272 394 272 404 213.5 404 155 404 155 394Z" fill="#00F23A"/><path d="M204.3 287.9C183.1 284.3 164.4 267.8 157.7 246.5 155.5 239.5 155.5 239.4 155.5 155.5 155.5 71.5 155.5 71.5 157.7 64.5 160.9 54.5 166.5 45.7 174.2 38.5 192.3 21.8 217.3 18.2 240 29.2 249.4 33.7 260.6 45.2 265.3 55 272.1 69.3 272.1 68.8 271.8 161L271.5 243.5 269.1 249.5C264.2 261.9 256.9 271.2 246.8 278.1 239.3 283.2 233.8 285.6 224.6 287.5 216.4 289.1 212.3 289.2 204.3 287.9Z" fill="#00F23A"/></g><g fill="#949494"></g><g fill="#8C8C8C"></g><g fill="#848484"></g><g fill="#7B7B7B"></g><g fill="#737373"></g><g fill="#6B6B6B"></g><g fill="#636363"></g><g fill="#5A5A5A"></g><g fill="#525252"></g><g fill="#4A4A4A"></g><g fill="#424242"></g><g fill="#3A3A3A"></g><g fill="#313131"></g><g fill="#292929"></g><g fill="#212121"></g><g fill="#191919"></g><g fill="#101010"></g><g fill="#080808"></g><g></g></svg>