<?xml version="1.0" encoding="utf-8"?>
<!DOCTYPE svg PUBLIC "-//W3C//DTD SVG 20010904//EN" "http://www.w3.org/TR/2001/REC-SVG-20010904/DTD/svg10.dtd">
<svg version="1.0" xmlns="http://www.w3.org/2000/svg" width="427px" height="427px" viewBox="0 0 427 427" preserveAspectRatio="xMidYMid meet">
 <g fill="#f7f7f7">
 </g>
 <g fill="#efefef">
 </g>
 <g fill="#e6e6e6">
 </g>
 <g fill="#dedede">
 </g>
 <g fill="#d6d6d6">
 </g>
 <g fill="#cecece">
 </g>
 <g fill="#c5c5c5">
 </g>
 <g fill="#bdbdbd">
 </g>
 <g fill="#b5b5b5">
 </g>
 <g fill="#adadad">
 </g>
 <g fill="#a5a5a5">
 </g>
 <g fill="#9c9c9c">
  <path d="M155 394 l0 -10 23.5 0 23.5 0 -0.2 -32.7 -0.3 -32.7 -5.5 -1.1 c-18.9 -3.9 -34.4 -12.7 -48.1 -27.3 -8.2 -8.8 -12.5 -15.3 -17.4 -26.9 -5.5 -12.7 -6.5 -20.1 -6.5 -46.8 l0 -23.5 10 0 10 0 0 22 c0 26.7 1.1 33.5 7.6 46.8 7.6 15.7 21.3 27.7 38.6 34 6.7 2.5 8.5 2.7 22.8 2.7 14.3 0 16.1 -0.2 22.8 -2.7 10.9 -3.9 17.8 -8.4 26.4 -17 6.1 -6.2 8.6 -9.5 12.2 -17 6.5 -13.3 7.6 -20.1 7.6 -46.8 l0 -22 10.1 0 10.1 0 -0.5 26.8 c-0.5 30.4 -0.8 32.6 -8.7 48.7 -12.1 25 -36.5 43.7 -64 48.9 l-6.5 1.2 -0.3 32.7 -0.2 32.7 25 0 25 0 0 10 0 10 -58.5 0 -58.5 0 0 -10z"/>
  <path d="M204.3 287.9 c-21.2 -3.6 -39.9 -20.1 -46.6 -41.4 -2.2 -7 -2.2 -7.1 -2.2 -91 0 -84 0 -84 2.2 -91 3.2 -10 8.8 -18.8 16.5 -26 18.1 -16.7 43.1 -20.3 65.8 -9.3 9.4 4.5 20.6 16 25.3 25.8 6.8 14.3 6.8 13.8 6.5 106 l-0.3 82.5 -2.4 6 c-4.9 12.4 -12.2 21.7 -22.3 28.6 -7.5 5.1 -13 7.5 -22.2 9.4 -8.2 1.6 -12.3 1.7 -20.3 0.4z"/>
 </g>
 <g fill="#949494">
 </g>
 <g fill="#8c8c8c">
 </g>
 <g fill="#848484">
 </g>
 <g fill="#7b7b7b">
 </g>
 <g fill="#737373">
 </g>
 <g fill="#6b6b6b">
 </g>
 <g fill="#636363">
 </g>
 <g fill="#5a5a5a">
 </g>
 <g fill="#525252">
 </g>
 <g fill="#4a4a4a">
 </g>
 <g fill="#424242">
 </g>
 <g fill="#3a3a3a">
 </g>
 <g fill="#313131">
 </g>
 <g fill="#292929">
 </g>
 <g fill="#212121">
 </g>
 <g fill="#191919">
 </g>
 <g fill="#101010">
 </g>
 <g fill="#080808">
 </g>
 <g fill="#000000">
 </g>
</svg>